<svg width="22" height="22" viewBox="0 0 22 22" fill="none" xmlns="http://www.w3.org/2000/svg">
<path fill-rule="evenodd" clip-rule="evenodd" d="M7.33336 6.11111C7.33336 5.13865 7.71966 4.20602 8.40729 3.51839C9.09492 2.83075 10.0275 2.44444 11 2.44444C11.9725 2.44444 12.9051 2.83075 13.5927 3.51839C14.2803 4.20602 14.6666 5.13865 14.6666 6.11111H7.33336ZM4.88893 6.11111C4.88893 4.49034 5.53277 2.93596 6.67882 1.7899C7.82487 0.643847 9.37924 0 11 0C12.6208 0 14.1751 0.643847 15.3212 1.7899C16.4672 2.93596 17.1111 4.49034 17.1111 6.11111H20.7777C20.9475 6.1111 21.1154 6.14647 21.2708 6.21495C21.4261 6.28343 21.5655 6.38353 21.6801 6.50887C21.7946 6.63421 21.8817 6.78204 21.936 6.94293C21.9902 7.10381 22.0103 7.27424 21.995 7.44333L20.9745 18.6658C20.8916 19.5768 20.4711 20.4239 19.7956 21.0408C19.1202 21.6577 18.2385 21.9998 17.3237 22H4.67626C3.7615 21.9998 2.87984 21.6577 2.20438 21.0408C1.52892 20.4239 1.10845 19.5768 1.02551 18.6658L0.00496014 7.44333C-0.0103203 7.27424 0.00979706 7.10381 0.0640299 6.94293C0.118263 6.78204 0.205421 6.63421 0.31995 6.50887C0.434478 6.38353 0.573864 6.28343 0.729222 6.21495C0.88458 6.14647 1.0525 6.1111 1.22229 6.11111H4.88893Z" fill="#FDA004"/>
</svg>
