<svg width="27" height="24" viewBox="0 0 27 24" fill="none" xmlns="http://www.w3.org/2000/svg">
<path d="M2.64573 24V6.8L0 1.13333L2.44221 0L5.63065 6.73333H21.3693L24.5578 0L27 1.13333L24.3543 6.8V24H2.64573ZM10.7864 14.6667H16.2136C16.598 14.6667 16.9205 14.5387 17.181 14.2827C17.4415 14.0267 17.5713 13.7102 17.5703 13.3333C17.5694 12.9564 17.4392 12.64 17.1796 12.384C16.92 12.128 16.598 12 16.2136 12H10.7864C10.402 12 10.08 12.128 9.8204 12.384C9.5608 12.64 9.43055 12.9564 9.42965 13.3333C9.42874 13.7102 9.55899 14.0271 9.8204 14.284C10.0818 14.5409 10.4038 14.6684 10.7864 14.6667Z" fill="#FB9C02"/>
</svg>
