<svg width="27" height="24" viewBox="0 0 27 24" fill="none" xmlns="http://www.w3.org/2000/svg">
<path d="M10.7861 11C10.1549 11.0001 9.5758 11.2206 9.11816 11.6719C8.66154 12.1222 8.43121 12.6974 8.42969 13.3311C8.42819 13.9683 8.66 14.5457 9.11914 14.9971C9.57653 15.4466 10.1546 15.6678 10.7861 15.666V15.667H16.2139C16.845 15.6669 17.4238 15.4462 17.8818 14.9961C18.341 14.5449 18.5718 13.9673 18.5703 13.3311C18.5688 12.6974 18.3385 12.1222 17.8818 11.6719C17.4242 11.2206 16.8451 11.0001 16.2139 11H10.7861ZM3.64551 6.7998C3.64548 6.65369 3.61357 6.50935 3.55176 6.37695L1.33008 1.61816L1.96289 1.32422L4.72656 7.16113C4.89197 7.51044 5.24437 7.7334 5.63086 7.7334H21.3691C21.7556 7.7334 22.108 7.51044 22.2734 7.16113L25.0361 1.32422L25.6689 1.61816L23.4482 6.37695C23.3864 6.50935 23.3545 6.65369 23.3545 6.7998V23H3.64551V6.7998Z" stroke="#727272" stroke-width="2" stroke-linejoin="round"/>
</svg>
