<svg width="24" height="24" viewBox="0 0 24 24" fill="none" xmlns="http://www.w3.org/2000/svg">
<path d="M6.66699 14.333H17.333C18.8358 14.333 20.2772 14.9306 21.3398 15.9932C22.4025 17.0559 23 18.4971 23 20C23 20.7956 22.6837 21.5585 22.1211 22.1211C21.5585 22.6837 20.7956 23 20 23H4C3.20435 23 2.44152 22.6837 1.87891 22.1211C1.3163 21.5585 1 20.7956 1 20C1 18.4971 1.59745 17.0559 2.66016 15.9932C3.72285 14.9306 5.16418 14.333 6.66699 14.333ZM12 1C13.1493 1 14.2518 1.45687 15.0645 2.26953C15.8768 3.08208 16.3329 4.18401 16.333 5.33301C16.333 6.4822 15.877 7.58482 15.0645 8.39746C14.2518 9.21012 13.1493 9.66699 12 9.66699C10.8507 9.66699 9.7482 9.21012 8.93555 8.39746C8.12299 7.58482 7.66699 6.4822 7.66699 5.33301C7.66708 4.18401 8.12317 3.08208 8.93555 2.26953C9.74821 1.45687 10.8507 1 12 1Z" stroke="#727272" stroke-width="2"/>
</svg>
