<svg width="43" height="26" viewBox="0 0 43 26" fill="none" xmlns="http://www.w3.org/2000/svg">
<path d="M16.4261 23.7594L15.719 23.0523V23.0523L16.4261 23.7594ZM16.4261 18.5739L15.719 19.281V19.281L16.4261 18.5739ZM11.2406 18.5739L11.9477 19.281V19.281L11.2406 18.5739ZM11.2406 23.7594L11.9477 23.0523V23.0523L11.2406 23.7594ZM34.7594 23.7594L34.0523 23.0523V23.0523L34.7594 23.7594ZM29.5739 23.7594L30.281 23.0523H30.281L29.5739 23.7594ZM17.5917 20.1667C17.0394 20.1667 16.5917 20.6144 16.5917 21.1667C16.5917 21.719 17.0394 22.1667 17.5917 22.1667V21.1667V20.1667ZM26.3445 1.32218L27.0516 0.615077L27.0516 0.615074L26.3445 1.32218ZM1 0C0.447715 0 0 0.447715 0 1C0 1.55228 0.447715 2 1 2V1V0ZM9.525 22.1667C10.0773 22.1667 10.525 21.719 10.525 21.1667C10.525 20.6144 10.0773 20.1667 9.525 20.1667V21.1667V22.1667ZM5.34571 21.0829L4.96303 22.0068L4.96304 22.0068L5.34571 21.0829ZM4.98885 20.8445L5.69596 20.1374H5.69596L4.98885 20.8445ZM4.7504 20.4876L5.67428 20.1049L5.67428 20.1049L4.7504 20.4876ZM5.66667 11.0833C5.66667 10.531 5.21895 10.0833 4.66667 10.0833C4.11438 10.0833 3.66667 10.531 3.66667 11.0833H4.66667H5.66667ZM2.83333 5.5C2.28105 5.5 1.83333 5.94772 1.83333 6.5C1.83333 7.05228 2.28105 7.5 2.83333 7.5V6.5V5.5ZM10.1667 7.5C10.719 7.5 11.1667 7.05228 11.1667 6.5C11.1667 5.94772 10.719 5.5 10.1667 5.5V6.5V7.5ZM26.6667 5.5C26.1144 5.5 25.6667 5.94772 25.6667 6.5C25.6667 7.05228 26.1144 7.5 26.6667 7.5V6.5V5.5ZM36.9517 6.5L36.9519 5.5H36.9517V6.5ZM37.5507 6.67756L38.0954 5.83898V5.83897L37.5507 6.67756ZM37.9563 7.15267L38.8702 6.74657L38.8699 6.746L37.9563 7.15267ZM41.238 14.5373L40.3242 14.9434L40.3247 14.9445L41.238 14.5373ZM41.3333 14.9828H42.3333L42.3333 14.9806L41.3333 14.9828ZM41.2496 20.4876L42.1735 20.8703L42.1735 20.8703L41.2496 20.4876ZM40.6543 21.0829L41.037 22.0068L41.037 22.0068L40.6543 21.0829ZM36.75 20.1667C36.1977 20.1667 35.75 20.6144 35.75 21.1667C35.75 21.719 36.1977 22.1667 36.75 22.1667V21.1667V20.1667ZM13.8333 24.8333V25.8333C15.071 25.8333 16.258 25.3417 17.1332 24.4665L16.4261 23.7594L15.719 23.0523C15.2189 23.5524 14.5406 23.8333 13.8333 23.8333V24.8333ZM16.4261 23.7594L17.1332 24.4665C18.0083 23.5913 18.5 22.4043 18.5 21.1667H17.5H16.5C16.5 21.8739 16.219 22.5522 15.719 23.0523L16.4261 23.7594ZM17.5 21.1667H18.5C18.5 19.929 18.0083 18.742 17.1332 17.8668L16.4261 18.5739L15.719 19.281C16.219 19.7811 16.5 20.4594 16.5 21.1667H17.5ZM16.4261 18.5739L17.1332 17.8668C16.258 16.9917 15.071 16.5 13.8333 16.5V17.5V18.5C14.5406 18.5 15.2189 18.781 15.719 19.281L16.4261 18.5739ZM13.8333 17.5V16.5C12.5957 16.5 11.4087 16.9917 10.5335 17.8668L11.2406 18.5739L11.9477 19.281C12.4478 18.781 13.1261 18.5 13.8333 18.5V17.5ZM11.2406 18.5739L10.5335 17.8668C9.65833 18.742 9.16667 19.929 9.16667 21.1667H10.1667H11.1667C11.1667 20.4594 11.4476 19.7811 11.9477 19.281L11.2406 18.5739ZM10.1667 21.1667H9.16667C9.16667 22.4043 9.65833 23.5913 10.5335 24.4665L11.2406 23.7594L11.9477 23.0523C11.4476 22.5522 11.1667 21.8739 11.1667 21.1667H10.1667ZM11.2406 23.7594L10.5335 24.4665C11.4087 25.3417 12.5957 25.8333 13.8333 25.8333V24.8333V23.8333C13.1261 23.8333 12.4478 23.5524 11.9477 23.0523L11.2406 23.7594ZM32.1667 24.8333V25.8333C33.4043 25.8333 34.5913 25.3417 35.4665 24.4665L34.7594 23.7594L34.0523 23.0523C33.5522 23.5524 32.8739 23.8333 32.1667 23.8333V24.8333ZM34.7594 23.7594L35.4665 24.4665C36.3417 23.5913 36.8333 22.4043 36.8333 21.1667H35.8333H34.8333C34.8333 21.8739 34.5524 22.5522 34.0523 23.0523L34.7594 23.7594ZM35.8333 21.1667H36.8333C36.8333 19.929 36.3417 18.742 35.4665 17.8668L34.7594 18.5739L34.0523 19.281C34.5524 19.7811 34.8333 20.4594 34.8333 21.1667H35.8333ZM34.7594 18.5739L35.4665 17.8668C34.5913 16.9917 33.4043 16.5 32.1667 16.5V17.5V18.5C32.8739 18.5 33.5522 18.781 34.0523 19.281L34.7594 18.5739ZM32.1667 17.5V16.5C30.929 16.5 29.742 16.9917 28.8668 17.8668L29.5739 18.5739L30.281 19.281C30.7811 18.781 31.4594 18.5 32.1667 18.5V17.5ZM29.5739 18.5739L28.8668 17.8668C27.9917 18.742 27.5 19.929 27.5 21.1667H28.5H29.5C29.5 20.4594 29.781 19.7811 30.281 19.281L29.5739 18.5739ZM28.5 21.1667H27.5C27.5 22.4043 27.9917 23.5913 28.8668 24.4665L29.5739 23.7594L30.281 23.0523C29.781 22.5522 29.5 21.8739 29.5 21.1667H28.5ZM29.5739 23.7594L28.8668 24.4665C29.742 25.3417 30.929 25.8333 32.1667 25.8333V24.8333V23.8333C31.4594 23.8333 30.7811 23.5524 30.281 23.0523L29.5739 23.7594ZM17.5917 21.1667V22.1667H26.6667V21.1667V20.1667H17.5917V21.1667ZM26.6667 21.1667H27.6667V2.1H26.6667H25.6667V21.1667H26.6667ZM26.6667 2.1H27.6667C27.6667 1.54305 27.4454 1.0089 27.0516 0.615077L26.3445 1.32218L25.6374 2.02929C25.6561 2.04804 25.6667 2.07348 25.6667 2.1H26.6667ZM26.3445 1.32218L27.0516 0.615074C26.6578 0.221249 26.1236 0 25.5667 0V1V2C25.5932 2 25.6186 2.01054 25.6374 2.02929L26.3445 1.32218ZM25.5667 1V0H1V1V2H25.5667V1ZM9.525 21.1667V20.1667H5.76667V21.1667V22.1667H9.525V21.1667ZM5.76667 21.1667V20.1667C5.75353 20.1667 5.74053 20.1641 5.72839 20.1591L5.34571 21.0829L4.96304 22.0068C5.21782 22.1123 5.49089 22.1667 5.76667 22.1667V21.1667ZM5.34571 21.0829L5.7284 20.1591C5.71627 20.154 5.70524 20.1467 5.69596 20.1374L4.98885 20.8445L4.28174 21.5516C4.47674 21.7466 4.70824 21.9013 4.96303 22.0068L5.34571 21.0829ZM4.98885 20.8445L5.69596 20.1374C5.68667 20.1281 5.6793 20.1171 5.67428 20.1049L4.7504 20.4876L3.82652 20.8703C3.93205 21.1251 4.08674 21.3566 4.28174 21.5516L4.98885 20.8445ZM4.7504 20.4876L5.67428 20.1049C5.66925 20.0928 5.66667 20.0798 5.66667 20.0667H4.66667H3.66667C3.66667 20.3424 3.72098 20.6155 3.82652 20.8703L4.7504 20.4876ZM4.66667 20.0667H5.66667V11.0833H4.66667H3.66667V20.0667H4.66667ZM2.83333 6.5V7.5H10.1667V6.5V5.5H2.83333V6.5ZM26.6667 6.5V7.5H36.9517V6.5V5.5H26.6667V6.5ZM36.9517 6.5L36.9514 7.5C36.9708 7.5 36.9897 7.50561 37.0059 7.51614L37.5507 6.67756L38.0954 5.83897C37.755 5.61784 37.3578 5.5001 36.9519 5.5L36.9517 6.5ZM37.5507 6.67756L37.0059 7.51614C37.0221 7.52668 37.0349 7.54168 37.0428 7.55933L37.9563 7.15267L38.8699 6.746C38.7048 6.37515 38.4358 6.06011 38.0954 5.83898L37.5507 6.67756ZM37.9563 7.15267L37.0425 7.55876L40.3242 14.9434L41.238 14.5373L42.1518 14.1312L38.8702 6.74657L37.9563 7.15267ZM41.238 14.5373L40.3247 14.9445C40.3304 14.9573 40.3333 14.9711 40.3333 14.9851L41.3333 14.9828L42.3333 14.9806C42.3327 14.6875 42.2707 14.3978 42.1513 14.1301L41.238 14.5373ZM41.3333 14.9828H40.3333V20.0667H41.3333H42.3333V14.9828H41.3333ZM41.3333 20.0667H40.3333C40.3333 20.0798 40.3307 20.0928 40.3257 20.1049L41.2496 20.4876L42.1735 20.8703C42.279 20.6155 42.3333 20.3424 42.3333 20.0667H41.3333ZM41.2496 20.4876L40.3257 20.1049C40.3207 20.1171 40.3133 20.1281 40.304 20.1374L41.0112 20.8445L41.7183 21.5516C41.9133 21.3566 42.068 21.1251 42.1735 20.8703L41.2496 20.4876ZM41.0112 20.8445L40.304 20.1374C40.2948 20.1467 40.2837 20.154 40.2716 20.1591L40.6543 21.0829L41.037 22.0068C41.2917 21.9013 41.5232 21.7466 41.7183 21.5516L41.0112 20.8445ZM40.6543 21.0829L40.2716 20.1591C40.2595 20.1641 40.2465 20.1667 40.2333 20.1667V21.1667V22.1667C40.5091 22.1667 40.7822 22.1123 41.037 22.0068L40.6543 21.0829ZM40.2333 21.1667V20.1667H36.75V21.1667V22.1667H40.2333V21.1667ZM26.6667 21.1667V22.1667H28.5V21.1667V20.1667H26.6667V21.1667Z" fill="#169B1A"/>
</svg>
